<?xml version="1.0" encoding="iso-8859-1"?>
<!-- Generator: Adobe Illustrator 19.0.0, SVG Export Plug-In . SVG Version: 6.00 Build 0)  -->
<svg version="1.1" id="Capa_1" xmlns="http://www.w3.org/2000/svg" xmlns:xlink="http://www.w3.org/1999/xlink" x="0px" y="0px"
	 viewBox="0 0 512.8 512.8" style="enable-background:new 0 0 512.8 512.8;" xml:space="preserve">
<rect x="7.2" y="38.8" style="fill:#FFFFFF;" width="336" height="432"/>
<rect x="39.2" y="102.8" style="fill:#4FBF9F;" width="272" height="336"/>
<g>
	<polygon style="fill:#FFFFFF;" points="265.6,70 85.6,70 92,8.4 259.2,8.4 	"/>
	<path style="fill:#FFFFFF;" d="M346.4,245.2v-12.8c0-6.4-5.6-11.2-12.8-11.2h-128c-7.2,0-12.8,4.8-12.8,11.2v186.4
		c0,6.4,5.6,11.2,12.8,11.2h268.8c7.2,0,12.8-4.8,12.8-11.2V255.6c0-6.4-5.6-11.2-12.8-11.2h-128V245.2z"/>
	<path style="fill:#FFFFFF;" d="M347.2,298v-14.4c0-6.4-6.4-12-14.4-12H189.6c-8,0-14.4,5.6-14.4,12v208c0,6.4,6.4,12,14.4,12h300
		c8,0,14.4-5.6,14.4-12V310c0-6.4-6.4-12-14.4-12H347.2z"/>
</g>
<g>
	<rect x="77.6" y="174.8" style="fill:#193651;" width="196" height="16"/>
	<path style="fill:#193651;" d="M494.4,290.8v-34.4c0-10.4-9.6-19.2-20.8-19.2h-120v-4.8c0-3.2-0.8-6.4-2.4-8.8v-192h-80.8
		l-3.2-31.2H84.8l-3.2,31.2H0v448h168v12.8c0,11.2,9.6,20,22.4,20h300c12,0,22.4-8.8,22.4-20V310C512,300.4,504.8,292.4,494.4,290.8
		z M338.4,233.2V254h136c2.4,0,4.8,1.6,4.8,3.2v33.6h-124v-6.4c0-11.2-9.6-20-22.4-20h-132V234c0-1.6,1.6-3.2,4.8-3.2h128
		C336.8,230,338.4,231.6,338.4,233.2z M99.2,16.4H252l4.8,45.6H95.2L99.2,16.4z M168.8,279.6c0,1.6-0.8,3.2-0.8,4.8v68H78.4v16H168
		v95.2H16v-416h64L77.6,78h197.6L272,47.6h64V214c-0.8,0-1.6,0-2.4,0h-128c-11.2,0-20.8,8.8-20.8,19.2v30.4H78.4v16L168.8,279.6
		L168.8,279.6z M496,492.4c0,2.4-2.4,4-6.4,4h-300c-3.2,0-6.4-2.4-6.4-4v-208c0-1.6,2.4-4,6.4-4h143.2c3.2,0,6.4,2.4,6.4,4v22.4
		h150.4c3.2,0,6.4,2.4,6.4,4L496,492.4L496,492.4z"/>
</g>
<rect x="203.2" y="322" style="fill:#F16051;" width="272" height="157.6"/>
<g>
	<rect x="339.2" y="411.6" style="fill:#FFFFFF;" width="112" height="27.2"/>
	<rect x="339.2" y="356.4" style="fill:#FFFFFF;" width="112" height="27.2"/>
</g>
<g>
	<rect x="124.8" y="30.8" style="fill:#193651;" width="16" height="16"/>
	<rect x="167.2" y="30.8" style="fill:#193651;" width="16" height="16"/>
	<rect x="210.4" y="30.8" style="fill:#193651;" width="16" height="16"/>
</g>
<g>
</g>
<g>
</g>
<g>
</g>
<g>
</g>
<g>
</g>
<g>
</g>
<g>
</g>
<g>
</g>
<g>
</g>
<g>
</g>
<g>
</g>
<g>
</g>
<g>
</g>
<g>
</g>
<g>
</g>
</svg>
