<svg id="Capa_1" data-name="Capa 1" xmlns="http://www.w3.org/2000/svg" viewBox="0 0 44.42 48.64"><defs><style>.cls-1{fill:#d6d8d8;}.cls-2{fill:#fff;}.cls-3{fill:#ecf0f1;}.cls-4{fill:#e7eced;}.cls-5{fill:#556080;}</style></defs><title>engrane</title><path class="cls-1" d="M45.75,17l-1.94-.37a4,4,0,0,1-2.47-6.29l1.22-1.66L39.93,6,38.3,7.11a4,4,0,0,1-6.19-2.7l-.31-2H28.07l-.48,2.5a4,4,0,0,1-6.16,2.55L19.32,6,16.69,8.63l1.22,1.66a4,4,0,0,1-2.47,6.29L13.5,17v3.72l2,.31a4,4,0,0,1,2.69,6.19l-1.1,1.64,2.63,2.63,1.66-1.22a4,4,0,0,1,6.28,2.46l.37,2H31.8L32,33.19a4,4,0,0,1,6.3-2.61l1.17.86,2.63-2.63L41,27.17A4,4,0,0,1,43.71,21l2-.31Z" transform="translate(-1.33 -2.38)"/><circle class="cls-2" cx="28.3" cy="16.13" r="5.38"/><path class="cls-3" d="M29.63,25.22a6.72,6.72,0,1,1,6.71-6.72A6.73,6.73,0,0,1,29.63,25.22Zm0-10.75a4,4,0,1,0,4,4A4,4,0,0,0,29.63,14.47Z" transform="translate(-1.33 -2.38)"/><path class="cls-4" d="M27.89,21.78l-1.72.94a2.83,2.83,0,0,0-.28.2,5.79,5.79,0,0,0,7.43,0,1.49,1.49,0,0,0-.31-.2l-1.85-.93a.71.71,0,0,1-.38-.63v-.72l.17-.23a4.12,4.12,0,0,0,.57-1.15.59.59,0,0,0,.42-.55v-.78a.58.58,0,0,0-.2-.43V16.2s.23-1.74-2.12-1.74-2.13,1.74-2.13,1.74v1.12a.58.58,0,0,0-.2.43v.78a.57.57,0,0,0,.27.48,4,4,0,0,0,.7,1.45v.71A.69.69,0,0,1,27.89,21.78Z" transform="translate(-1.33 -2.38)"/><path class="cls-5" d="M29.71,12.72a5.78,5.78,0,0,0-3.82,10.2,2.83,2.83,0,0,1,.28-.2l1.72-.94a.69.69,0,0,0,.37-.61v-.71a4,4,0,0,1-.7-1.45.58.58,0,0,1-.27-.49v-.77a.58.58,0,0,1,.2-.43V16.2s-.23-1.74,2.12-1.74,2.13,1.74,2.13,1.74v1.12a.58.58,0,0,1,.2.43v.77a.6.6,0,0,1-.42.56A4.12,4.12,0,0,1,31,20.23a1.54,1.54,0,0,1-.18.23v.72a.72.72,0,0,0,.39.63l1.85.93a1.21,1.21,0,0,1,.3.2,5.77,5.77,0,0,0-3.6-10.22Z" transform="translate(-1.33 -2.38)"/><path class="cls-1" d="M24.3,40.16,23,39.69a2.83,2.83,0,0,1-1-4.67l1-1-1.56-2.13-1.26.6a2.83,2.83,0,0,1-4-2.56V28.44L13.52,28l-.61,1.7a2.83,2.83,0,0,1-4.59,1.12L7,29.62,4.87,31.17l.67,1.3a2.82,2.82,0,0,1-2.41,4.12l-1.4,0-.4,2.61,1.39.44a2.82,2.82,0,0,1,1.21,4.62l-1,1,1.55,2.13,1.3-.68A2.83,2.83,0,0,1,10,49.2L10,50.6l2.61.41.31-1a2.83,2.83,0,0,1,4.7-1.14l.72.73,2.13-1.56-.6-1.26a2.84,2.84,0,0,1,2.57-4H23.9Z" transform="translate(-1.33 -2.38)"/><circle class="cls-2" cx="11.52" cy="37.11" r="3.81"/><path class="cls-3" d="M12.12,44.19a4.76,4.76,0,1,1,5.43-4A4.75,4.75,0,0,1,12.12,44.19Zm1.17-7.52a2.85,2.85,0,1,0,2.38,3.26A2.84,2.84,0,0,0,13.29,36.67Z" transform="translate(-1.33 -2.38)"/></svg>