<svg id="Capa_1" data-name="Capa 1" xmlns="http://www.w3.org/2000/svg" viewBox="0 0 55 57"><defs><style>.cls-1{fill:#d6d8d8;}.cls-2{fill:#b31217;}.cls-3{fill:#556080;}.cls-4{fill:#fff;}.cls-5{fill:#ecf0f1;}.cls-6{fill:#e7eced;}</style></defs><title>list</title><path class="cls-1" d="M44.64,52H9.36A8.36,8.36,0,0,1,1,43.64V8.36A8.36,8.36,0,0,1,9.36,0H44.64A8.36,8.36,0,0,1,53,8.36V43.64A8.36,8.36,0,0,1,44.64,52Z" transform="translate(-1)"/><path class="cls-2" d="M45,14H27a1,1,0,0,1,0-2H45a1,1,0,0,1,0,2Z" transform="translate(-1)"/><path class="cls-2" d="M45,28H27a1,1,0,0,1,0-2H45a1,1,0,0,1,0,2Z" transform="translate(-1)"/><path class="cls-2" d="M45,42H27a1,1,0,0,1,0-2H45a1,1,0,0,1,0,2Z" transform="translate(-1)"/><path class="cls-2" d="M13.07,17a1,1,0,0,1-.6-.2L7.9,13.37a1,1,0,0,1,1.2-1.6l3.82,2.87,6.25-7.29a1,1,0,1,1,1.52,1.3l-6.86,8A1,1,0,0,1,13.07,17Z" transform="translate(-1)"/><path class="cls-2" d="M13.07,31a1,1,0,0,1-.6-.2L7.9,27.37a1,1,0,0,1,1.2-1.6l3.82,2.87,6.25-7.29a1,1,0,1,1,1.52,1.3l-6.86,8A1,1,0,0,1,13.07,31Z" transform="translate(-1)"/><path class="cls-2" d="M13.07,46a1,1,0,0,1-.6-.2L7.9,42.37a1,1,0,1,1,1.2-1.6l3.82,2.87,6.25-7.29a1,1,0,0,1,1.52,1.3l-6.86,8A1,1,0,0,1,13.07,46Z" transform="translate(-1)"/><path class="cls-3" d="M56,43.85l-1.44-.28a3,3,0,0,1-1.84-4.68l.91-1.23-2-2-1.22.82a3,3,0,0,1-4.6-2L45.62,33H42.85l-.36,1.87a3,3,0,0,1-4.59,1.89L36.33,35.7l-2,2,.91,1.23a3,3,0,0,1-1.84,4.68L32,43.85v2.77l1.51.23a3,3,0,0,1,2,4.6l-.82,1.22,2,2,1.23-.91a3,3,0,0,1,4.68,1.84L42.85,57h2.77l.16-1.07A3,3,0,0,1,50.47,54l.87.64,2-2-.82-1.22a3,3,0,0,1,2-4.6L56,46.62Z" transform="translate(-1)"/><circle class="cls-4" cx="43" cy="45" r="4"/><path class="cls-5" d="M44,50a5,5,0,1,1,5-5A5,5,0,0,1,44,50Zm0-8a3,3,0,1,0,3,3A3,3,0,0,0,44,42Z" transform="translate(-1)"/><path class="cls-6" d="M42.67,47.27,41.4,48l-.2.14a4.19,4.19,0,0,0,2.74,1,4.27,4.27,0,0,0,2.72-1,.91.91,0,0,0-.23-.15l-1.35-.68a.52.52,0,0,1-.29-.46v-.54l.13-.16a3.37,3.37,0,0,0,.42-.85.43.43,0,0,0,.3-.41V44.3A.41.41,0,0,0,45.5,44v-.82s.17-1.28-1.56-1.28-1.57,1.28-1.57,1.28V44a.45.45,0,0,0-.14.31v.57a.43.43,0,0,0,.2.36,2.77,2.77,0,0,0,.51,1.06v.52A.52.52,0,0,1,42.67,47.27Z" transform="translate(-1)"/><path class="cls-3" d="M44,40.61A4.24,4.24,0,0,0,41.2,48.1l.2-.14,1.27-.69a.52.52,0,0,0,.27-.46v-.52a2.77,2.77,0,0,1-.51-1.06.43.43,0,0,1-.2-.36V44.3a.45.45,0,0,1,.14-.31v-.82s-.16-1.28,1.57-1.28,1.56,1.28,1.56,1.28V44a.41.41,0,0,1,.14.31v.57a.44.44,0,0,1-.3.41,3.37,3.37,0,0,1-.42.85l-.13.16v.54a.52.52,0,0,0,.29.46l1.35.68a.91.91,0,0,1,.23.15,4.3,4.3,0,0,0,1.53-3.19A4.25,4.25,0,0,0,44,40.61Z" transform="translate(-1)"/></svg>