<svg id="Capa_1" data-name="Capa 1" xmlns="http://www.w3.org/2000/svg" viewBox="0 0 55 57"><defs><style>.cls-1{fill:#d6d8d8;}.cls-2{fill:#b31217;}.cls-3{fill:#556080;}.cls-4{fill:#fff;}.cls-5{fill:#ecf0f1;}.cls-6{fill:#e7eced;}</style></defs><title>list2</title><path class="cls-1" d="M44.64,52H9.36A8.36,8.36,0,0,1,1,43.64V8.36A8.36,8.36,0,0,1,9.36,0H44.64A8.36,8.36,0,0,1,53,8.36V43.64A8.36,8.36,0,0,1,44.64,52Z" transform="translate(-1)"/><path class="cls-2" d="M45,14H27a1,1,0,0,1,0-2H45a1,1,0,0,1,0,2Z" transform="translate(-1)"/><path class="cls-2" d="M45,28H27a1,1,0,0,1,0-2H45a1,1,0,0,1,0,2Z" transform="translate(-1)"/><path class="cls-2" d="M45,42H27a1,1,0,0,1,0-2H45a1,1,0,0,1,0,2Z" transform="translate(-1)"/><path class="cls-2" d="M13.07,17a1,1,0,0,1-.6-.2L7.9,13.37a1,1,0,0,1,1.2-1.6l3.82,2.87,6.25-7.29a1,1,0,1,1,1.52,1.3l-6.86,8A1,1,0,0,1,13.07,17Z" transform="translate(-1)"/><path class="cls-2" d="M13.07,31a1,1,0,0,1-.6-.2L7.9,27.37a1,1,0,0,1,1.2-1.6l3.82,2.87,6.25-7.29a1,1,0,1,1,1.52,1.3l-6.86,8A1,1,0,0,1,13.07,31Z" transform="translate(-1)"/><path class="cls-2" d="M13.07,46a1,1,0,0,1-.6-.2L7.9,42.37a1,1,0,1,1,1.2-1.6l3.82,2.87,6.25-7.29a1,1,0,0,1,1.52,1.3l-6.86,8A1,1,0,0,1,13.07,46Z" transform="translate(-1)"/><path class="cls-3" d="M56,39.32,54.06,39a4,4,0,0,1-2.47-6.28L52.81,31l-2.63-2.63-1.63,1.11a4,4,0,0,1-6.19-2.7l-.31-2H38.32l-.48,2.51a4,4,0,0,1-6.16,2.55l-2.11-1.43L26.94,31l1.22,1.66A4,4,0,0,1,25.69,39l-1.94.37v3.73l2,.31a4,4,0,0,1,2.69,6.18l-1.1,1.64L30,53.81l1.66-1.22A4,4,0,0,1,38,55.06L38.32,57h3.73l.22-1.43A4,4,0,0,1,48.57,53l1.17.85,2.63-2.63-1.11-1.63A4,4,0,0,1,54,43.36l2-.31Z" transform="translate(-1)"/><circle class="cls-4" cx="38.88" cy="40.88" r="5.38"/><path class="cls-5" d="M39.88,47.59a6.72,6.72,0,1,1,6.71-6.71A6.72,6.72,0,0,1,39.88,47.59Zm0-10.75a4,4,0,1,0,4,4A4,4,0,0,0,39.88,36.84Z" transform="translate(-1)"/><path class="cls-6" d="M38.14,44.16l-1.72.94a1.31,1.31,0,0,0-.28.2,5.79,5.79,0,0,0,7.43,0,2.11,2.11,0,0,0-.31-.21l-1.85-.92a.71.71,0,0,1-.38-.63v-.73a2.46,2.46,0,0,0,.17-.22,4.32,4.32,0,0,0,.57-1.16.58.58,0,0,0,.42-.55v-.77a.57.57,0,0,0-.2-.43V38.58s.23-1.74-2.12-1.74-2.13,1.74-2.13,1.74V39.7a.57.57,0,0,0-.2.43v.77a.6.6,0,0,0,.27.49,3.9,3.9,0,0,0,.7,1.44v.71A.7.7,0,0,1,38.14,44.16Z" transform="translate(-1)"/><path class="cls-3" d="M40,35.09a5.78,5.78,0,0,0-3.82,10.2,1.73,1.73,0,0,1,.28-.19l1.72-.94a.7.7,0,0,0,.37-.62v-.71a3.9,3.9,0,0,1-.7-1.44.6.6,0,0,1-.27-.49v-.77a.57.57,0,0,1,.2-.43V38.58s-.23-1.74,2.12-1.74S42,38.58,42,38.58V39.7a.57.57,0,0,1,.2.43v.77a.58.58,0,0,1-.42.55,4.32,4.32,0,0,1-.57,1.16,1.42,1.42,0,0,1-.18.22v.73a.72.72,0,0,0,.39.63l1.85.92a1.61,1.61,0,0,1,.3.21A5.78,5.78,0,0,0,40,35.09Z" transform="translate(-1)"/></svg>