<?xml version="1.0" encoding="iso-8859-1"?>
<!-- Generator: Adobe Illustrator 21.0.0, SVG Export Plug-In . SVG Version: 6.00 Build 0)  -->
<svg version="1.1" id="Capa_1" xmlns="http://www.w3.org/2000/svg" xmlns:xlink="http://www.w3.org/1999/xlink" x="0px" y="0px"
	 viewBox="0 0 512 512" style="enable-background:new 0 0 512 512;" xml:space="preserve">
<g>
	<g>
		<path style="fill:#3D324C;" d="M256,247.172c-4.875,0-8.828,3.952-8.828,8.828v79.448c0,4.875,3.952,8.828,8.828,8.828
			s8.828-3.952,8.828-8.828V256C264.828,251.125,260.875,247.172,256,247.172z"/>
		<path style="fill:#3D324C;" d="M176.552,256H88.276c-9.751,0-17.655,7.904-17.655,17.655v79.448c0,4.875,3.952,8.828,8.828,8.828
			s8.828-3.952,8.828-8.828v-79.448h88.276c4.875,0,8.828-3.952,8.828-8.828S181.427,256,176.552,256z"/>
		<path style="fill:#3D324C;" d="M423.724,256h-88.276c-4.875,0-8.828,3.952-8.828,8.828s3.952,8.828,8.828,8.828h88.276v79.448
			c0,4.875,3.952,8.828,8.828,8.828s8.828-3.952,8.828-8.828v-79.448C441.379,263.904,433.475,256,423.724,256z"/>
	</g>
	<circle style="fill:#14A085;" cx="79.448" cy="432.552" r="79.448"/>
	<circle style="fill:#41767F;" cx="256" cy="414.897" r="97.103"/>
	<g>
		<path style="fill:#FFFFFF;" d="M82.979,423.724h-7.062c-3.017-0.31-5.311-2.851-5.311-5.884c0-3.033,2.294-5.574,5.311-5.884
			h21.186c4.875,0,8.828-3.952,8.828-8.828s-3.952-8.828-8.828-8.828h-5.297v-5.888c0-4.875-3.952-8.828-8.828-8.828
			c-4.875,0-8.828,3.952-8.828,8.828v6.073c-12.356,1.235-21.62,11.867-21.153,24.276c0.467,12.409,10.505,22.314,22.918,22.616
			h7.062c3.017,0.31,5.311,2.851,5.311,5.884c0,3.033-2.294,5.574-5.311,5.884H61.793c-4.875,0-8.828,3.952-8.828,8.828
			s3.952,8.828,8.828,8.828h12.359v5.888c0,4.875,3.952,8.828,8.828,8.828c4.875,0,8.828-3.952,8.828-8.828v-7.707
			c8.619-3.772,14.17-12.308,14.124-21.716C106.078,434.435,95.812,423.903,82.979,423.724z"/>
		<path style="fill:#FFFFFF;" d="M282.483,423.724H256c-4.875,0-8.828-3.952-8.828-8.828v-44.138c0-4.875,3.952-8.828,8.828-8.828
			s8.828,3.952,8.828,8.828v35.31h17.655c4.875,0,8.828,3.952,8.828,8.828S287.358,423.724,282.483,423.724z"/>
	</g>
	<path style="fill:#F29C1F;" d="M512,432.552c0.017,26.531-13.235,51.313-35.31,66.03c-5.251,3.582-10.95,6.461-16.949,8.563
		c-5.915,2.206-12.084,3.659-18.361,4.326c-5.864,0.706-11.791,0.706-17.655,0c-6.278-0.666-12.447-2.119-18.361-4.326
		c-5.999-2.102-11.698-4.98-16.949-8.563c-31.519-21.059-43.769-61.452-29.259-96.471s51.739-54.91,88.916-47.506
		C485.246,362.009,512.014,394.645,512,432.552z"/>
	<path style="fill:#14A085;" d="M406.069,467.862v35.84c-0.004,1.183-0.244,2.354-0.706,3.443
		c-5.999-2.102-11.698-4.98-16.949-8.563v-30.72c0-4.875,3.952-8.828,8.828-8.828S406.069,462.987,406.069,467.862z"/>
	<path style="fill:#CC66A1;" d="M441.379,441.379v70.091c-5.864,0.706-11.791,0.706-17.655,0v-70.091
		c0-4.875,3.952-8.828,8.828-8.828S441.379,436.504,441.379,441.379z"/>
	<g>
		<path style="fill:#E64C3C;" d="M476.69,441.379v57.203c-5.251,3.582-10.95,6.461-16.949,8.563
			c-0.462-1.089-0.703-2.26-0.706-3.443v-62.323c0-4.875,3.952-8.828,8.828-8.828S476.69,436.504,476.69,441.379z"/>
		<path style="fill:#E64C3C;" d="M397.241,441.379c-3.57-0.001-6.788-2.152-8.154-5.45c-1.366-3.298-0.611-7.094,1.913-9.619
			l35.31-35.31c3.447-3.446,9.035-3.446,12.482,0l11.414,11.414L461.621,391c3.464-3.345,8.97-3.298,12.375,0.108
			c3.405,3.405,3.453,8.911,0.108,12.375l-17.655,17.655c-3.447,3.446-9.035,3.446-12.482,0l-11.414-11.414l-29.069,29.069
			C401.827,440.448,399.582,441.379,397.241,441.379z"/>
	</g>
	<path style="fill:#4482C3;" d="M347.63,223.541l-49.823-25.556c-6.492-3.38-10.55-10.106-10.514-17.426v-14.707
		c1.677-1.979,3.253-4.042,4.723-6.179c6.732-9.836,11.951-20.625,15.484-32.009c6.457-2.246,10.653-8.489,10.293-15.316V90.924
		c0.28-4.402-1.325-8.715-4.414-11.864V48.163c0,0,6.179-48.163-57.379-48.163s-57.379,48.154-57.379,48.154v30.897
		c-3.091,3.151-4.696,7.468-4.414,11.873v21.398c-0.309,5.291,2.109,10.372,6.409,13.471c3.438,14.512,9.866,28.147,18.873,40.033
		v14.257c0.032,7.078-3.758,13.622-9.913,17.117l-46.53,26.006c-13.543,7.691-21.879,22.093-21.804,37.667v16.26
		c-0.029,2.915,2.302,5.306,5.217,5.35h219.083c2.915-0.044,5.247-2.434,5.217-5.35v-15.21
		C370.838,245.81,361.914,231,347.63,223.541z"/>
</g>
<g>
</g>
<g>
</g>
<g>
</g>
<g>
</g>
<g>
</g>
<g>
</g>
<g>
</g>
<g>
</g>
<g>
</g>
<g>
</g>
<g>
</g>
<g>
</g>
<g>
</g>
<g>
</g>
<g>
</g>
</svg>
