<?xml version="1.0" encoding="iso-8859-1"?>
<!-- Generator: Adobe Illustrator 19.0.0, SVG Export Plug-In . SVG Version: 6.00 Build 0)  -->
<svg version="1.1" id="Capa_1" xmlns="http://www.w3.org/2000/svg" xmlns:xlink="http://www.w3.org/1999/xlink" x="0px" y="0px"
	 viewBox="0 0 513.6 513.6" style="enable-background:new 0 0 513.6 513.6;" xml:space="preserve">
<path style="fill:#193651;" d="M455.2,257.6h-16v-16h16V257.6z M74.4,252.8h-16v-16h16V252.8z M455.2,225.6h-16v-16h16V225.6z
	 M74.4,220.8h-16v-16h16V220.8z M455.2,193.6h-16v-16h16V193.6z M74.4,188.8h-16v-16h16V188.8z M455.2,161.6h-16v-16h16V161.6z
	 M74.4,156.8h-16v-16h16V156.8z M455.2,129.6h-16v-16h16V129.6z M74.4,124.8h-16v-16h16V124.8z M455.2,97.6h-16v-16h16V97.6z
	 M74.4,92.8h-16v-16h16V92.8z M437.6,68c-0.8-4-3.2-8-5.6-11.2l12.8-9.6c4,4,6.4,9.6,8,16L437.6,68z M76.8,64.8l-14.4-6.4
	c2.4-5.6,5.6-11.2,10.4-16L84,53.6C80.8,56.8,78.4,60.8,76.8,64.8z M422.4,48c-4-2.4-8-3.2-12-4l1.6-16c6.4,0.8,12.8,2.4,18.4,5.6
	L422.4,48z M94.4,46.4L88,32c5.6-2.4,12-4,18.4-4v16l0,0C102.4,44,98.4,44.8,94.4,46.4z M395.2,44h-16V28h16V44z M363.2,44h-16V28
	h16V44z M331.2,44h-16V28h16V44z M299.2,44h-16V28h16V44z M267.2,44h-16V28h16V44z M235.2,44h-16V28h16V44z M203.2,44h-16V28h16V44z
	 M171.2,44h-16V28h16V44z M139.2,44h-16V28h16V44z"/>
<circle style="fill:#FFFFFF;" cx="91.2" cy="257.6" r="49.6"/>
<path style="fill:#193651;" d="M91.2,315.2c-32,0-57.6-25.6-57.6-57.6S59.2,200,91.2,200s57.6,25.6,57.6,57.6
	C148.8,288.8,123.2,315.2,91.2,315.2z M91.2,216c-23.2,0-41.6,18.4-41.6,41.6c0,23.2,18.4,41.6,41.6,41.6s41.6-18.4,41.6-41.6
	C132.8,234.4,114.4,216,91.2,216z"/>
<path style="fill:#FFBF5D;" d="M91.2,340.8c-45.6,0-82.4,36.8-82.4,82.4h165.6C174.4,377.6,136.8,340.8,91.2,340.8z"/>
<path style="fill:#193651;" d="M182.4,431.2H0.8v-8c0-49.6,40.8-90.4,90.4-90.4s90.4,40.8,90.4,90.4v8H182.4z M17.6,415.2h148.8
	c-4-37.6-36-66.4-74.4-66.4S21.6,377.6,17.6,415.2z"/>
<circle style="fill:#FFFFFF;" cx="256.8" cy="340" r="49.6"/>
<path style="fill:#193651;" d="M256.8,397.6c-32,0-57.6-25.6-57.6-57.6s25.6-57.6,57.6-57.6s57.6,25.6,57.6,57.6
	S288.8,397.6,256.8,397.6z M256.8,298.4c-23.2,0-41.6,18.4-41.6,41.6s18.4,41.6,41.6,41.6s41.6-18.4,41.6-41.6
	S280,298.4,256.8,298.4z"/>
<path style="fill:#FFBF5D;" d="M256.8,423.2c-45.6,0-82.4,36.8-82.4,82.4H340C339.2,460,302.4,423.2,256.8,423.2z"/>
<path style="fill:#193651;" d="M347.2,513.6H166.4v-8c0-49.6,40.8-90.4,90.4-90.4c50.4,0,90.4,40.8,90.4,90.4V513.6z M182.4,497.6
	h148.8c-4-37.6-36-66.4-74.4-66.4S186.4,460.8,182.4,497.6z"/>
<circle style="fill:#FFFFFF;" cx="422.4" cy="257.6" r="49.6"/>
<path style="fill:#193651;" d="M422.4,315.2c-32,0-57.6-25.6-57.6-57.6s25.6-57.6,57.6-57.6s57.6,25.6,57.6,57.6
	C480,288.8,453.6,315.2,422.4,315.2z M422.4,216c-23.2,0-41.6,18.4-41.6,41.6c0,23.2,18.4,41.6,41.6,41.6s41.6-18.4,41.6-41.6
	C464,234.4,444.8,216,422.4,216z"/>
<path style="fill:#FFBF5D;" d="M422.4,340.8c-45.6,0-82.4,36.8-82.4,82.4h164.8C504.8,377.6,468,340.8,422.4,340.8z"/>
<path style="fill:#193651;" d="M512.8,431.2H331.2v-8c0-49.6,40.8-90.4,90.4-90.4s91.2,40,91.2,90.4V431.2z M348,415.2h148.8
	c-4-37.6-36-66.4-74.4-66.4S352,377.6,348,415.2z"/>
<path style="fill:#FFFFFF;" d="M203.2,218.4l-4.8,22.4l31.2,12.8l11.2-20.8c13.6,2.4,26.4,2.4,39.2-0.8l12,20l30.4-13.6l-7.2-21.6
	c10.4-7.2,20-17.6,27.2-28.8l22.4,5.6l12-32l-20-11.2c2.4-13.6,1.6-27.2-1.6-40.8l19.2-12l-13.6-30.4l-21.6,6.4
	c-7.2-11.2-17.6-20.8-28.8-28l4.8-22.4L284,10.4l-11.2,20.8c-13.6-2.4-26.4-2.4-39.2,0.8l-12-20l-30.4,13.6l6.4,22.4
	c-10.4,7.2-20,17.6-27.2,28.8L148,71.2l-12,32l20,11.2c-2.4,13.6-1.6,27.2,1.6,40.8l-19.2,12l13.6,31.2l21.6-6.4
	C182.4,201.6,192,211.2,203.2,218.4z"/>
<path style="fill:#193651;" d="M232.8,264l-44-17.6l5.6-24c-8.8-6.4-16-13.6-23.2-22.4l-23.2,6.4l-19.2-44l20.8-12.8
	c-1.6-10.4-2.4-21.6-0.8-32l-21.6-12L144,60.8l24,6.4c6.4-8.8,12.8-16,21.6-23.2l-7.2-24l42.4-19.2l12.8,21.6
	c10.4-1.6,20.8-1.6,31.2-0.8l12-21.6l44,17.6l-5.6,24C328,48,336,55.2,342.4,64l23.2-6.4l19.2,44L364,114.4
	c1.6,10.4,2.4,21.6,0.8,32l21.6,12l-16.8,44.8l-24-6.4c-6.4,8.8-12.8,16-21.6,23.2l7.2,24l-42.4,19.2L276,241.6
	c-10.4,1.6-20.8,1.6-31.2,0.8L232.8,264z M207.2,236.8l18.4,7.2l10.4-19.2l5.6,0.8c12,2.4,24.8,2.4,36-0.8l5.6-1.6l11.2,19.2l17.6-8
	l-6.4-21.6l4.8-3.2c10.4-7.2,18.4-16,24.8-26.4l3.2-4.8l20.8,5.6l7.2-18.4l-19.2-11.2l0.8-5.6c2.4-12.8,1.6-24.8-0.8-37.6l-1.6-5.6
	L364,94.4L356,76l-20.8,5.6l-3.2-4.8c-7.2-10.4-16-19.2-26.4-26.4l-4-1.6l4.8-21.6L288,20l-10.4,19.2l-5.6-0.8
	c-12-2.4-24.8-2.4-36,0.8l-5.6,1.6l-11.2-19.2l-17.6,8l6.4,21.6l-4.8,3.2c-10.4,7.2-18.4,16-24.8,26.4l-3.2,4.8L154.4,80l-7.2,18.4
	l19.2,11.2l-0.8,5.6c-2.4,12.8-1.6,24.8,0.8,37.6l1.6,5.6l-19.2,10.4l8,18.4l20.8-5.6l3.2,4.8c7.2,10.4,16,19.2,26.4,26.4l4.8,3.2
	L207.2,236.8z"/>
<circle style="fill:#FFFFFF;" cx="256.8" cy="132" r="52"/>
<path style="fill:#193651;" d="M256.8,192c-7.2,0-14.4-1.6-20.8-4c-15.2-5.6-27.2-16.8-33.6-31.2s-7.2-31.2-1.6-46.4
	c8.8-23.2,31.2-39.2,56.8-39.2c7.2,0,14.4,1.6,20.8,4c31.2,12,47.2,46.4,35.2,77.6C304.8,176.8,281.6,192,256.8,192z M256.8,88
	c-18.4,0-35.2,11.2-41.6,28.8c-4,11.2-4,23.2,0.8,33.6c4.8,10.4,13.6,19.2,24.8,23.2c4.8,1.6,10.4,3.2,15.2,3.2
	c18.4,0,35.2-11.2,41.6-28.8c8.8-23.2-3.2-48-25.6-56.8C267.2,88.8,262.4,88,256.8,88z"/>
<g>
</g>
<g>
</g>
<g>
</g>
<g>
</g>
<g>
</g>
<g>
</g>
<g>
</g>
<g>
</g>
<g>
</g>
<g>
</g>
<g>
</g>
<g>
</g>
<g>
</g>
<g>
</g>
<g>
</g>
</svg>
