<?xml version="1.0" encoding="utf-8"?>
<!-- Generator: Adobe Illustrator 21.1.0, SVG Export Plug-In . SVG Version: 6.00 Build 0)  -->
<svg version="1.1" id="Capa_1" xmlns="http://www.w3.org/2000/svg" xmlns:xlink="http://www.w3.org/1999/xlink" x="0px" y="0px"
	 viewBox="0 0 44.7 44.7" style="enable-background:new 0 0 44.7 44.7;" xml:space="preserve">
<style type="text/css">
	.st0{fill:#5697D4;}
	.st1{fill:#223B55;}
</style>
<path class="st0" d="M25,39.1c-0.3,0.5-0.8,0.8-1.4,1l-2.8,0.8c-0.2,0.1-0.4,0.1-0.7,0.1c-0.5,0-1-0.2-1.4-0.5
	c-0.6-0.4-1-1.1-1.1-1.8l-0.2-2.9c-0.1-0.6,0.1-1.2,0.4-1.7L18,34H8c-0.8,0-1.5-0.7-1.5-1.5C6.6,31.7,7.2,31,8,31h12l2.7-3.8H8
	c-0.8,0-1.5-0.7-1.5-1.5s0.7-1.5,1.5-1.5l16.8,0l6.3-9V8.5c0-1.1-0.9-2-1.9-2h-4.8v3.8c0,1.8-1.5,3.2-3.3,3.2h-9.7
	c-1.8,0-3.2-1.4-3.2-3.2V6.5H3.3c-1.1,0-2,0.9-2,2v34.2c0,1.1,0.9,2,2,2h25.9c1.1,0,1.9-0.9,1.9-2V30.4L25,39.1z M8,17.5h16.4
	c0.8,0,1.5,0.7,1.5,1.5c0,0.8-0.7,1.5-1.5,1.5H8c-0.8,0-1.5-0.7-1.5-1.5C6.6,18.2,7.2,17.5,8,17.5z"/>
<path class="st1" d="M11.4,11.6h9.7c0.7,0,1.3-0.6,1.3-1.3V4.7c0-0.7-0.6-1.3-1.3-1.3h-1.5c0-1.9-1.5-3.4-3.4-3.4
	c-1.9,0-3.4,1.5-3.4,3.4h-1.4c-0.7,0-1.3,0.6-1.3,1.3v5.6C10.1,11,10.7,11.6,11.4,11.6z M16.2,1.9c0.8,0,1.5,0.7,1.5,1.5h-3
	C14.7,2.6,15.4,1.9,16.2,1.9z"/>
<path class="st1" d="M43.4,9c0-0.2-0.2-0.5-0.4-0.6l-2.4-1.7c-0.2-0.1-0.4-0.2-0.5-0.2c-0.3,0-0.6,0.1-0.8,0.4L22.1,31.6l4,2.8
	L43.2,9.7C43.4,9.5,43.4,9.2,43.4,9z"/>
<path class="st1" d="M19.4,35.6l0.2,2.9c0,0.2,0.1,0.3,0.2,0.4C19.9,39,20,39,20.2,39c0,0,0.1,0,0.1,0l2.8-0.8
	c0.1,0,0.2-0.1,0.3-0.2l1.1-1.5l-4-2.8l-1.1,1.5C19.4,35.3,19.3,35.5,19.4,35.6z"/>
</svg>
