<?xml version="1.0" encoding="utf-8"?>
<!-- Generator: Adobe Illustrator 22.0.0, SVG Export Plug-In . SVG Version: 6.00 Build 0)  -->
<svg version="1.1" id="Capa_1" xmlns="http://www.w3.org/2000/svg" xmlns:xlink="http://www.w3.org/1999/xlink" x="0px" y="0px"
	 viewBox="0 0 998.7 1024" style="enable-background:new 0 0 998.7 1024;" xml:space="preserve">
<style type="text/css">
	.st0{fill:#BDC3C7;}
	.st1{fill:#E4BA26;}
	.st2{fill:#4D4D4D;}
</style>
<g>
	<ellipse class="st0" cx="498.3" cy="512" rx="484.1" ry="499"/>
</g>
<g>
	<ellipse class="st1" cx="498.3" cy="510" rx="432.7" ry="446"/>
</g>
<g>
	<path class="st2" d="M268.9,619.7c-9.5-10.5-14.2-25.6-14.2-45.3v-13.9h36.1v16.7c0,15.8,6.6,23.6,19.8,23.6
		c6.5,0,11.4-1.9,14.8-5.7c3.4-3.8,5-10,5-18.6c0-10.2-2.3-19.2-6.9-26.9c-4.6-7.8-13.2-17.1-25.7-28c-15.8-13.9-26.7-26.5-33-37.7
		c-6.3-11.2-9.4-23.9-9.4-38c0-19.2,4.9-34.1,14.6-44.6c9.7-10.5,23.8-15.8,42.4-15.8c18.3,0,32.1,5.3,41.5,15.8
		c9.4,10.5,14.1,25.6,14.1,45.3v10.1h-36.1v-12.5c0-8.3-1.6-14.4-4.9-18.2c-3.2-3.8-8-5.7-14.2-5.7c-12.7,0-19.1,7.8-19.1,23.3
		c0,8.8,2.4,17,7.1,24.7c4.7,7.6,13.4,16.9,25.9,27.8c16,13.9,27,26.5,33,37.9c6,11.3,9,24.7,9,39.9c0,19.9-4.9,35.2-14.8,45.8
		c-9.8,10.7-24.1,16-42.9,16C292.4,635.5,278.4,630.2,268.9,619.7z"/>
	<path class="st2" d="M419,388.9h51.8L510.3,632h-38.2l-6.9-48.3v0.7h-43.4l-6.9,47.6h-35.4L419,388.9z M460.7,551.4l-17-120.2h-0.7
		l-16.7,120.2H460.7z"/>
	<path class="st2" d="M542.6,423.6h-39.9v-34.7h118.1v34.7h-39.9V632h-38.2V423.6z"/>
	<path class="st2" d="M646.8,619.7c-9.5-10.5-14.2-25.6-14.2-45.3v-13.9h36.1v16.7c0,15.8,6.6,23.6,19.8,23.6
		c6.5,0,11.4-1.9,14.8-5.7c3.4-3.8,5-10,5-18.6c0-10.2-2.3-19.2-6.9-26.9c-4.6-7.8-13.2-17.1-25.7-28c-15.8-13.9-26.7-26.5-33-37.7
		c-6.3-11.2-9.4-23.9-9.4-38c0-19.2,4.9-34.1,14.6-44.6c9.7-10.5,23.8-15.8,42.4-15.8c18.3,0,32.1,5.3,41.5,15.8
		c9.4,10.5,14.1,25.6,14.1,45.3v10.1h-36.1v-12.5c0-8.3-1.6-14.4-4.9-18.2c-3.2-3.8-8-5.7-14.2-5.7c-12.7,0-19.1,7.8-19.1,23.3
		c0,8.8,2.4,17,7.1,24.7c4.7,7.6,13.4,16.9,25.9,27.8c16,13.9,27,26.5,33,37.9c6,11.3,9,24.7,9,39.9c0,19.9-4.9,35.2-14.8,45.8
		c-9.8,10.7-24.1,16-42.9,16C670.3,635.5,656.3,630.2,646.8,619.7z"/>
</g>
</svg>
