<svg id="Capa_1" data-name="Capa 1" xmlns="http://www.w3.org/2000/svg" viewBox="0 0 512 512"><defs><style>.cls-1{fill:#193651;}.cls-2{fill:#fff;}.cls-3{fill:#fdbf5e;}.cls-4{fill:#b31217;}</style></defs><title>usersdos</title><path class="cls-1" d="M444,512H428V496h16Zm-32,0H396V496h16Zm-32,0H364V496h16Zm-32,0H332V496h16Zm-32,0H300V496h16Zm144.8-.8-2.4-16c4.8-.8,8.8-1.6,12.8-4l7.2,14.4C473.6,508.8,467.2,510.4,460.8,511.2Zm32.8-16L482.4,484a51.36,51.36,0,0,0,8-10.4l14.4,7.2A39.1,39.1,0,0,1,493.6,495.2Zm17.6-32-16-3.2c.8-2.4.8-4.8.8-8v-7.2h16V452C512,456,512,460,511.2,463.2Zm.8-33.6H496v-16h16Z" transform="translate(0)"/><path class="cls-2" d="M438.4,236.8H432c-12,12-27.2,20-44.8,20-16.8,0-32-8-44-20H336c-36,0-65.6,26.4-65.6,59.2v70.4H504V296C504,263.2,474.4,236.8,438.4,236.8Z" transform="translate(0)"/><path class="cls-2" d="M440.8,160.8a41.18,41.18,0,0,1,9.6-14.4v-36s0-15.2-16.8-19.2c0,0,6.4-12-8.8-16.8H362.4S327.2,76,324,111.2v36s8,4,9.6,17.6V135.2s4-16.8,19.2-17.6c0,0,25.6,3.2,44.8-8.8,0,0,18.4,6.4,20.8,7.2,0,0,24,4.8,22.4,28.8Z" transform="translate(0)"/><path class="cls-3" d="M417.6,114.4c-2.4,0-20.8-7.2-20.8-7.2C377.6,120,352,116,352,116c-15.2.8-19.2,17.6-19.2,17.6v28.8c2.4,29.6,25.6,66.4,53.6,66.4,28.8,0,52.8-40,53.6-69.6v-16C441.6,119.2,417.6,114.4,417.6,114.4Z" transform="translate(0)"/><path class="cls-2" d="M176.8,170.4h-7.2c-12,12-27.2,20-44.8,20-16.8,0-32-8-44-20H73.6c-36,0-65.6,26.4-65.6,59.2V300H242.4V229.6C242.4,196.8,212.8,170.4,176.8,170.4Z" transform="translate(0)"/><path class="cls-2" d="M179.2,94.4A41.18,41.18,0,0,1,188.8,80V44.8s0-15.2-16.8-19.2c0,0,6.4-12-8.8-17.6H100.8S65.6,9.6,62.4,44.8V80s8,4,9.6,17.6V68s4-16.8,19.2-17.6c0,0,25.6,3.2,44.8-8.8,0,0,18.4,6.4,20.8,7.2,0,0,24,4.8,22.4,28.8Z" transform="translate(0)"/><path class="cls-3" d="M156,48c-2.4,0-20.8-7.2-20.8-7.2C116,53.6,90.4,49.6,90.4,49.6,75.2,51.2,71.2,68,71.2,68V96.8c2.4,29.6,25.6,66.4,53.6,66.4,28.8,0,52.8-40,53.6-69.6l-.8-16.8C179.2,52.8,156,48,156,48Z" transform="translate(0)"/><path class="cls-2" d="M336,380.8l-.8-39.2-29.6-4a116.9,116.9,0,0,0-16-36.8L306.4,276l-28-27.2-24,18.4a104,104,0,0,0-36.8-14.4L212.8,224l-39.2.8-4,29.6a116.9,116.9,0,0,0-36.8,16L108,253.6l-27.2,28,18.4,24a104,104,0,0,0-14.4,36.8L56,347.2l.8,39.2,29.6,4a116.9,116.9,0,0,0,16,36.8L85.6,452l28,27.2,24-18.4a104,104,0,0,0,36.8,14.4l5.6,29.6,39.2-.8,4-29.6a116.9,116.9,0,0,0,36.8-16l24.8,16.8,27.2-28-18.4-24A104,104,0,0,0,308,386.4Z" transform="translate(0)"/><path class="cls-1" d="M320,153.6s4,2.4,5.6,10.4c2.4,30.4,27.2,73.6,61.6,73.6,32,0,59.2-40,61.6-74.4,0-.8,2.4-5.6,7.2-10.4l2.4-2.4V111.2a28.86,28.86,0,0,0-15.2-24.8,22.15,22.15,0,0,0-.8-7.2c-1.6-4-4.8-9.6-14.4-12.8l-1.6-.8h-64c-14.4.8-42.4,11.2-46.4,44v41.6Zm67.2,68c-21.6,0-42.4-31.2-45.6-57.6h0V135.2c.8-2.4,4-10.4,11.2-11.2,1.6,0,4.8.8,8.8.8,10.4,0,24-1.6,36.8-8.8,16,5.6,17.6,5.6,18.4,5.6,1.6,0,16.8,4,16,21.6l.8,16C432,186.4,410.4,221.6,387.2,221.6ZM332,111.2c3.2-26.4,28-28.8,30.4-28.8h60.8c1.6.8,3.2,1.6,3.2,2.4v2.4L421.6,96,432,98.4c9.6,2.4,10.4,10.4,11.2,12v10.4h0c-6.4-8.8-16-13.6-22.4-14.4-1.6,0-11.2-4-19.2-6.4l-4-1.6-3.2,2.4c-11.2,7.2-24.8,8-32,8h-8.8c-8.8,0-15.2,4.8-19.2,9.6l-.8.8v-8Z" transform="translate(0)"/><path class="cls-1" d="M58.4,87.2s4,2.4,5.6,10.4c2.4,30.4,27.2,73.6,61.6,73.6,32.8,0,60-41.6,61.6-77.6V96a33.6,33.6,0,0,1,7.2-10.4l2.4-2.4V44.8A28.86,28.86,0,0,0,181.6,20a22.15,22.15,0,0,0-.8-7.2c-1.6-4-4.8-9.6-14.4-12.8H100C85.6.8,57.6,11.2,53.6,44V85.6Zm66.4,68c-21.6,0-42.4-31.2-45.6-57.6h0V68.8c.8-2.4,4-10.4,11.2-11.2,1.6,0,4.8.8,8.8.8,10.4,0,24-1.6,36.8-8.8C152,56,153.6,56,154.4,56s16.8,4,16,21.6l.8,16C170.4,120.8,148,155.2,124.8,155.2ZM69.6,44.8C72.8,18.4,97.6,16,100,16h60.8c1.6.8,3.2,1.6,3.2,2.4v2.4l-4.8,8.8L169.6,32c9.6,2.4,10.4,10.4,11.2,12V54.4h0c-6.4-8.8-16-13.6-23.2-14.4-1.6,0-11.2-4-19.2-6.4l-4-1.6-3.2,2.4c-11.2,7.2-24.8,8-32,8H90.4c-8.8,0-15.2,4.8-20,10.4l-.8.8Z" transform="translate(0)"/><path class="cls-1" d="M512,296c0-36.8-32.8-67.2-73.6-67.2H428l-2.4,2.4c-12,12-24.8,17.6-39.2,17.6-16.8,0-30.4-9.6-38.4-17.6l-2.4-2.4H334.4c-18.4,0-36,6.4-48.8,17.6l-7.2-6.4-24.8,19.2-4.8-2.4h0V230.4c0-36.8-32.8-67.2-73.6-67.2H164.8l-2.4,2.4c-12,12-24.8,17.6-39.2,17.6-16.8,0-30.4-9.6-38.4-17.6l-2.4-2.4H73.6c-40,0-73.6,30.4-73.6,67.2v78.4H88.8c-4,8.8-8,17.6-10.4,26.4L48,340.8l.8,52.8,31.2,4a117,117,0,0,0,12.8,28.8L75.2,452l37.6,36.8,24.8-19.2c9.6,4.8,19.2,8.8,29.6,11.2l5.6,31.2,52.8-.8,4-31.2a117,117,0,0,0,28.8-12.8L284,484.8l36.8-37.6-19.2-24.8c4.8-9.6,8.8-19.2,11.2-29.6l31.2-5.6V374.4H512ZM80.8,292.8H16V230.4c0-28,25.6-51.2,57.6-51.2h4.8c14.4,12.8,30.4,20,47.2,20,17.6,0,33.6-7.2,48-20h4c31.2,0,57.6,23.2,57.6,51.2v19.2c-3.2-.8-6.4-1.6-8.8-2.4L219.2,216l-52.8.8-4,31.2a117,117,0,0,0-28.8,12.8L108,243.2,71.2,280.8ZM300,379.2l-.8,4.8a106.68,106.68,0,0,1-13.6,34.4l-3.2,4.8L300,445.6,282.4,464l-23.2-16-4.8,3.2a106.14,106.14,0,0,1-33.6,15.2l-5.6,1.6-4,28H186.4l-4.8-28-5.6-1.6a106.68,106.68,0,0,1-34.4-13.6l-4.8-3.2-22.4,17.6L96,450.4l16-23.2-3.2-4.8a106.14,106.14,0,0,1-15.2-33.6L92,383.2l-28-4V353.6l28-4.8.8-5.6a106.68,106.68,0,0,1,13.6-34.4l3.2-4.8L92,281.6l17.6-18.4,23.2,16,4.8-3.2a106.14,106.14,0,0,1,33.6-15.2l5.6-1.6,4-28,25.6-.8,4.8,28,5.6.8a106.68,106.68,0,0,1,34.4,13.6L256,276l22.4-17.6L296.8,276l-16,23.2L284,304a106.14,106.14,0,0,1,15.2,33.6l1.6,5.6,28,4,.8,25.6Zm196-20.8H344l-.8-24-31.2-4a117,117,0,0,0-12.8-28.8L316.8,276l-19.2-18.4a60.4,60.4,0,0,1,36.8-12.8h4.8c14.4,12.8,30.4,20,47.2,20,17.6,0,33.6-7.2,48-20h4c31.2,0,57.6,23.2,57.6,51.2Z" transform="translate(0)"/><circle class="cls-4" cx="196" cy="364" r="81.6"/><circle class="cls-2" cx="196" cy="364" r="36.8"/><path class="cls-1" d="M196,408.3A44.3,44.3,0,1,1,240.3,364,44.35,44.35,0,0,1,196,408.3Zm0-73.6A29.3,29.3,0,1,0,225.3,364,29.33,29.33,0,0,0,196,334.7Z" transform="translate(0)"/></svg>